0
SECTION
2
HEADER
9
$INSUNITS
70
4
9
$ACADVER
1
AC1014
9
$HANDSEED
5
FFFF
0
ENDSEC
0
SECTION
2
TABLES
0
TABLE
2
VPORT
5
8
100
AcDbSymbolTable
0
ENDTAB
0
TABLE
2
LTYPE
5
5
100
AcDbSymbolTable
0
LTYPE
5
14
100
AcDbSymbolTableRecord
100
AcDbLinetypeTableRecord
2
BYBLOCK
70
0
0
LTYPE
5
15
100
AcDbSymbolTableRecord
100
AcDbLinetypeTableRecord
2
BYLAYER
70
0
0
ENDTAB
0
TABLE
2
LAYER
5
2
100
AcDbSymbolTable
70
2
0
LAYER
5
50
100
AcDbSymbolTableRecord
100
AcDbLayerTableRecord
2
0
70
0
6
CONTINUOUS
0
ENDTAB
0
TABLE
2
STYLE
5
3
100
AcDbSymbolTable
70
1
0
STYLE
5
11
100
AcDbSymbolTableRecord
100
AcDbTextStyleTableRecord
2
STANDARD
70
0
0
ENDTAB
0
TABLE
2
VIEW
5
6
100
AcDbSymbolTable
70
0
0
ENDTAB
0
TABLE
2
UCS
5
7
100
AcDbSymbolTable
70
0
0
ENDTAB
0
TABLE
2
APPID
5
9
100
AcDbSymbolTable
70
2
0
APPID
5
12
100
AcDbSymbolTableRecord
100
AcDbRegAppTableRecord
2
ACAD
70
0
0
ENDTAB
0
TABLE
2
DIMSTYLE
5
A
100
AcDbSymbolTable
70
1
0
ENDTAB
0
TABLE
2
BLOCK_RECORD
5
1
100
AcDbSymbolTable
70
1
0
BLOCK_RECORD
5
1F
100
AcDbSymbolTableRecord
100
AcDbBlockTableRecord
2
*MODEL_SPACE
0
BLOCK_RECORD
5
1B
100
AcDbSymbolTableRecord
100
AcDbBlockTableRecord
2
*PAPER_SPACE
0
ENDTAB
0
ENDSEC
0
SECTION
2
BLOCKS
0
BLOCK
5
20
100
AcDbEntity
100
AcDbBlockBegin
2
*MODEL_SPACE
0
ENDBLK
5
21
100
AcDbEntity
100
AcDbBlockEnd
0
BLOCK
5
1C
100
AcDbEntity
100
AcDbBlockBegin
2
*PAPER_SPACE
0
ENDBLK
5
1D
100
AcDbEntity
100
AcDbBlockEnd
0
ENDSEC
0
SECTION
2
ENTITIES
0
LWPOLYLINE
5
100
100
AcDbEntity
8
0
100
AcDbPolyline
90
8
70
1
43
0.0
10
-60.149999999999999
20
-41.000000000000007
10
60.149999999999999
20
-41.000000000000007
42
-0.41421356237309509
10
66
20
-35.149999999999999
10
66
20
35.150000000000006
42
-0.41421356237309509
10
60.150000000000006
20
41.000000000000007
10
-60.150000000000006
20
41.000000000000007
42
-0.41421356237309509
10
-66
20
35.150000000000006
10
-66
20
-35.149999999999999
42
-0.41421356237309509
0
CIRCLE
5
101
100
AcDbEntity
8
0
100
AcDbCircle
10
60
20
30.000000000000007
30
0
40
2.0000000000000022
0
CIRCLE
5
102
100
AcDbEntity
8
0
100
AcDbCircle
10
60
20
-29.999999999999996
30
0
40
1.9999999999999987
0
CIRCLE
5
103
100
AcDbEntity
8
0
100
AcDbCircle
10
-60
20
-29.999999999999996
30
0
40
2.0000000000000022
0
CIRCLE
5
104
100
AcDbEntity
8
0
100
AcDbCircle
10
-60
20
30.000000000000007
30
0
40
1.9999999999999982
0
CIRCLE
5
105
100
AcDbEntity
8
0
100
AcDbCircle
10
-60
20
3.5817182438470597e-15
30
0
40
2.0000000000000009
0
CIRCLE
5
106
100
AcDbEntity
8
0
100
AcDbCircle
10
60
20
2.3570714446997067e-15
30
0
40
2.0000000000000018
0
LINE
5
107
100
AcDbEntity
8
0
100
AcDbLine
10
60
20
-29.999999999999996
30
0
11
58.211145618000167
21
-29.10557280900008
31
0
0
LINE
5
108
100
AcDbEntity
8
0
100
AcDbLine
10
-58.211145618000167
20
29.105572809000094
30
0
11
-60
21
30.000000000000007
31
0
0
LINE
5
109
100
AcDbEntity
8
0
100
AcDbLine
10
-60
20
37.272727272727273
30
0
11
-61.030768681445799
21
37.913053271807236
31
0
0
LINE
5
110
100
AcDbEntity
8
0
100
AcDbLine
10
58.211145618000167
20
29.105572809000094
30
0
11
60
21
30.000000000000007
31
0
0
LINE
5
111
100
AcDbEntity
8
0
100
AcDbLine
10
-61.030768681445792
20
-37.913053271807236
30
0
11
-60
21
-37.272727272727273
31
0
0
LINE
5
112
100
AcDbEntity
8
0
100
AcDbLine
10
-55.000000000000007
20
-41.000000000000007
30
0
11
-55
21
41.000000000000007
31
0
0
LINE
5
113
100
AcDbEntity
8
0
100
AcDbLine
10
55
20
41.000000000000007
30
0
11
55
21
-41.000000000000007
31
0
0
LINE
5
114
100
AcDbEntity
8
0
100
AcDbLine
10
-55
20
-43
30
0
11
-52.441860465116299
21
-41.000000000000007
31
0
0
LINE
5
115
100
AcDbEntity
8
0
100
AcDbLine
10
9.9999999999999982
20
-37.554999999999993
30
0
11
-9.9999999999999982
21
-37.554999999999993
31
0
0
LINE
5
116
100
AcDbEntity
8
0
100
AcDbLine
10
-9.9999999999999982
20
-37.554999999999993
30
0
11
-9.9999999999999982
21
37.554999999999993
31
0
0
LINE
5
117
100
AcDbEntity
8
0
100
AcDbLine
10
-9.9999999999999982
20
37.554999999999993
30
0
11
9.9999999999999982
21
37.554999999999993
31
0
0
LINE
5
118
100
AcDbEntity
8
0
100
AcDbLine
10
9.9999999999999982
20
37.554999999999993
30
0
11
9.9999999999999982
21
-37.554999999999993
31
0
0
LINE
5
119
100
AcDbEntity
8
0
100
AcDbLine
10
9.9999999999999982
20
-37.554999999999993
30
0
11
-9.9999999999999982
21
37.554999999999993
31
0
0
LINE
5
120
100
AcDbEntity
8
0
100
AcDbLine
10
-9.9999999999999982
20
-37.554999999999993
30
0
11
9.9999999999999982
21
37.554999999999993
31
0
0
CIRCLE
5
121
100
AcDbEntity
8
0
100
AcDbCircle
10
-9.9999999999999982
20
37.554999999999993
30
0
40
1.7499999999999987
0
CIRCLE
5
122
100
AcDbEntity
8
0
100
AcDbCircle
10
9.9999999999999982
20
37.554999999999993
30
0
40
1.7499999999999993
0
CIRCLE
5
123
100
AcDbEntity
8
0
100
AcDbCircle
10
-9.9999999999999982
20
-37.554999999999993
30
0
40
1.7499999999999993
0
CIRCLE
5
124
100
AcDbEntity
8
0
100
AcDbCircle
10
9.9999999999999982
20
-37.554999999999993
30
0
40
1.7499999999999996
0
ENDSEC
0
SECTION
2
OBJECTS
0
DICTIONARY
5
C
100
AcDbDictionary
3
ACAD_GROUP
350
D
3
ACAD_MLINESTYLE
350
17
0
DICTIONARY
5
D
100
AcDbDictionary
0
DICTIONARY
5
1A
330
C
100
AcDbDictionary
0
DICTIONARY
5
17
100
AcDbDictionary
0
ENDSEC
0
EOF
